<svg width="131" height="37" viewBox="0 0 131 37" fill="none" xmlns="http://www.w3.org/2000/svg">
<path d="M34.3857 28.7363V0.44043H65.3545L71.3779 12.1299L77.4004 0.44043H88.5195L76.0469 19.8984V36.1494H66.6738V19.7207L60.8291 10.3115C60.8291 10.3115 60.9927 10.9249 60.8291 12.8418C60.1163 21.181 52.8457 21.7158 52.8457 21.7158L62.6465 36.1494H51.7051L43.5439 22.2148V36.1494H0.101562L12.3125 0.44043H24.6787L34.3857 28.7363ZM13.252 26.8125H23.0879L18.2773 10.1699L13.252 26.8125ZM43.5088 17.3691H46.3594C49.1747 17.3691 51.4559 16.0147 51.4561 12.665C51.4561 9.31512 49.0322 7.99609 46.3594 7.99609H43.5088V17.3691Z" fill="#B8CAFF"/>
<path d="M13.2521 26.812H33.6714L37.0231 36.0778L10.2031 36.15L13.2521 26.812Z" fill="url(#paint0_linear_4012_1414)"/>
<path d="M114.727 36.1516V13.2471H118.962V22.0951C119.841 20.338 121.483 19.4595 123.889 19.4595C125.06 19.4595 126.116 19.7314 127.058 20.2753C127.999 20.8191 128.741 21.5931 129.285 22.5971C129.829 23.6012 130.101 24.7934 130.101 26.174V36.1516H125.865V27.2094C125.865 25.787 125.541 24.7621 124.893 24.1345C124.244 23.4861 123.397 23.1619 122.351 23.1619C121.452 23.1619 120.657 23.4861 119.966 24.1345C119.297 24.7621 118.962 25.787 118.962 27.2094V36.1516H114.727Z" fill="#565454"/>
<path d="M106.053 36.5592C104.882 36.5592 103.784 36.3396 102.759 35.9003C101.755 35.4611 100.866 34.8545 100.092 34.0805C99.3179 33.2857 98.7113 32.3758 98.2721 31.3508C97.8537 30.3049 97.6445 29.1859 97.6445 27.9936C97.6445 26.4039 98.0106 24.971 98.7427 23.6951C99.4957 22.3982 100.521 21.3628 101.818 20.5888C103.135 19.8149 104.621 19.4279 106.273 19.4279C107.758 19.407 109.087 19.6685 110.258 20.2123C111.429 20.7562 112.36 21.5092 113.05 22.4714L109.787 25.1384C109.411 24.5736 108.919 24.1239 108.313 23.7892C107.727 23.4545 107.068 23.2872 106.336 23.2872C105.436 23.2872 104.652 23.5068 103.983 23.9461C103.313 24.3644 102.79 24.9292 102.414 25.6404C102.058 26.3516 101.88 27.136 101.88 27.9936C101.88 28.8303 102.069 29.6147 102.445 30.3468C102.843 31.058 103.376 31.6332 104.045 32.0725C104.736 32.4908 105.531 32.7 106.43 32.7C107.246 32.7 107.936 32.5222 108.501 32.1666C109.066 31.7901 109.557 31.3194 109.976 30.7547L113.05 33.4216C112.276 34.4047 111.314 35.1787 110.164 35.7434C109.034 36.2873 107.664 36.5592 106.053 36.5592Z" fill="#565454"/>
<path d="M88.3426 36.56C86.6692 36.56 85.1945 36.173 83.9185 35.3991C82.6426 34.6252 81.649 33.6002 80.9378 32.3242C80.2475 31.0274 79.9023 29.5945 79.9023 28.0257C79.9023 26.4569 80.2684 25.0241 81.0005 23.7272C81.7326 22.4094 82.7262 21.3636 83.9813 20.5896C85.2573 19.8157 86.7111 19.4287 88.3426 19.4287C89.9742 19.4287 91.4071 19.8157 92.6412 20.5896C93.8963 21.3636 94.869 22.4094 95.5593 23.7272C96.2705 25.0241 96.6261 26.4569 96.6261 28.0257C96.6261 28.2558 96.6156 28.4964 96.5947 28.7474C96.5738 28.9984 96.5424 29.2599 96.5006 29.5318H84.2951C84.5252 30.494 84.9853 31.2784 85.6756 31.885C86.3868 32.4916 87.2758 32.7949 88.3426 32.7949C89.263 32.7949 90.0579 32.5857 90.7273 32.1674C91.4175 31.749 91.9509 31.2261 92.3275 30.5986L95.622 33.0773C94.9736 34.1022 94.0009 34.9389 92.704 35.5874C91.4071 36.2358 89.9533 36.56 88.3426 36.56ZM88.2799 23.0683C87.2758 23.0683 86.4182 23.3716 85.707 23.9782C84.9958 24.5848 84.5252 25.3797 84.2951 26.3628H92.3588C92.1287 25.4634 91.6476 24.6894 90.9155 24.041C90.2043 23.3925 89.3258 23.0683 88.2799 23.0683Z" fill="#565454"/>
<path d="M76.8458 36.1518C75.2351 36.1518 74.001 35.7544 73.1433 34.9595C72.2857 34.1647 71.8569 32.8782 71.8569 31.1003V23.4445H69.5664V19.8363H71.8569V16.5418L76.0927 16.1025V19.8363H79.5442V23.4445H76.0927V30.8806C76.0927 31.8847 76.532 32.3867 77.4105 32.3867H79.1676V36.1518H76.8458Z" fill="#565454"/>
<defs>
<linearGradient id="paint0_linear_4012_1414" x1="24.7636" y1="31.5874" x2="9.93815" y2="31.5874" gradientUnits="userSpaceOnUse">
<stop stop-color="#B8CAFF"/>
<stop offset="1" stop-color="#98A5CD"/>
</linearGradient>
</defs>
</svg>
